<svg width="180" height="180" xmlns="http://www.w3.org/2000/svg">
 <g>
  <title>Layer 1</title>
  <g id="svg_1" stroke="null">
   <path id="svg_2" d="m153.77143,24.83047c7.9,11.1 11,24.8 8.6,38.2c-1.1,6.3 -3.6,12.3 -7.1,17.7c5.2,9.8 6.9,21.1 4.9,32c-2.4,13.1 -10.1,24.6 -21.4,31.7l-41.3,26.3c-23.5,15 -56.1,8 -72.5,-15.6c-7.9,-10.9 -11,-24.7 -8.6,-38.1c1.1,-6.3 3.6,-12.3 7.1,-17.7c-5.2,-9.8 -6.9,-21.1 -4.9,-32c2.4,-13.1 10.1,-24.7 21.4,-31.7l41.3,-26.4c23.5,-15 56,-8 72.5,15.6" fill="#ff3e00" stroke="null"/>
   <path id="svg_3" d="m77.17143,157.53047c3,-0.8 5.8,-2 8.4,-3.7l41.3,-26.3c6.8,-4.3 11.5,-11.2 12.9,-19.1c1.4,-8 -0.4,-16.3 -5.2,-23c-7.8,-11.3 -21.9,-16.5 -35.2,-13.1c-3,0.8 -5.8,2 -8.4,3.7l-15.8,10c-0.8,0.5 -1.6,0.9 -2.5,1.1c-4,1 -8.3,-0.5 -10.6,-3.9c-1.4,-2 -2,-4.5 -1.6,-6.9c0.4,-2.4 1.8,-4.5 3.9,-5.7l41.3,-26.3c0.8,-0.5 1.6,-0.9 2.5,-1.1c4,-1 8.3,0.5 10.6,3.9c1.3,1.8 1.9,4 1.7,6.1l0,1.5c-0.1,0 1.4,0.5 1.4,0.5c5.8,1.8 11.3,4.5 16.2,8.1l2.1,1.6l0.8,-2.4c0.4,-1.3 0.7,-2.6 1,-3.9c1.4,-8 -0.4,-16.3 -5.2,-23c-7.8,-11.3 -21.9,-16.5 -35.2,-13.1c-3,0.8 -5.8,2 -8.4,3.7l-41.3,26.3c-6.8,4.3 -11.5,11.2 -12.9,19.1c-1.4,8 0.4,16.3 5.2,23c7.8,11.3 21.9,16.5 35.2,13.1c3,-0.8 5.8,-2 8.4,-3.7l15.8,-10.1c0.8,-0.5 1.6,-0.9 2.5,-1.1c4,-1 8.3,0.5 10.6,3.9c1.4,2 2,4.5 1.6,6.9c-0.4,2.4 -1.8,4.5 -3.9,5.8l-41.3,26.3c-0.8,0.5 -1.6,0.9 -2.5,1.1c-4,1 -8.3,-0.5 -10.6,-3.9c-1.3,-1.8 -1.9,-4 -1.7,-6.1l0,-1.5c0.1,0 -1.4,-0.5 -1.4,-0.5c-5.8,-1.8 -11.3,-4.5 -16.2,-8.1l-2.1,-1.6l-0.8,2.4c-0.4,1.3 -0.7,2.6 -1,3.9c-1.4,8 0.4,16.3 5.2,23c7.8,11.3 21.9,16.5 35.2,13.1" fill="#fff" stroke="null"/>
  </g>
 </g>

</svg>